<svg width="500" height="500" viewBox="0 0 500 500" fill="none" xmlns="http://www.w3.org/2000/svg">
<path d="M139.254 349.281C174.299 349.281 202.708 332.879 202.708 312.646C202.708 292.413 174.299 276.011 139.254 276.011C104.209 276.011 75.8 292.413 75.8 312.646C75.8 332.879 104.209 349.281 139.254 349.281Z" fill="#E0E0E0"/>
<path d="M247.286 408.962L241.387 405.555L245.678 403.078C247.912 401.784 248.246 399.953 248.246 398.971C248.244 397.995 247.908 396.164 245.674 394.875L234.987 388.704C233.802 388.02 232.395 387.672 230.799 387.671C229.208 387.672 227.801 388.02 226.618 388.703L219.408 392.867L182.149 371.355C180.965 370.672 179.56 370.325 177.968 370.324C176.38 370.324 174.972 370.671 173.782 371.356L158.555 380.148C157.241 380.908 156.378 381.658 155.825 382.527C155.167 383.578 154.965 384.873 155.238 386.452L163.12 425.89C163.578 427.871 165.062 429.598 167.533 431.023L178.22 437.194C179.406 437.879 180.81 438.226 182.394 438.226H182.402C183.995 438.226 185.403 437.879 186.586 437.195L216.888 419.699L225.712 424.793C226.898 425.478 228.302 425.825 229.903 425.825C231.488 425.825 232.893 425.479 234.08 424.794L247.281 417.17C249.52 415.885 249.857 414.05 249.859 413.059C249.857 412.083 249.52 410.251 247.286 408.962ZM188.606 410.649L186.835 401.767L195.412 406.719L188.606 410.649Z" fill="#E0E0E0"/>
<path d="M306.625 347.585C303.955 345.888 301.001 344.105 297.847 342.283C294.719 340.477 291.564 338.735 288.449 337.093C284.458 335.032 280.061 333.334 275.382 332.041C270.661 330.74 265.679 330.049 260.576 329.986L259.886 329.983C255.015 329.983 249.965 330.609 244.877 331.844C239.518 333.148 234.136 335.348 228.879 338.382C223.436 341.525 219.612 344.665 217.19 347.983C214.657 351.461 213.434 354.982 213.557 358.453C213.681 361.919 215.045 365.244 217.603 368.331C219.929 371.145 222.968 373.773 226.657 376.158C229.417 377.906 232.438 379.729 235.636 381.575C238.833 383.421 241.921 385.125 244.83 386.647C248.831 388.713 253.229 390.412 257.897 391.699C262.618 393.003 267.6 393.693 272.704 393.754L273.396 393.758C278.279 393.758 283.328 393.132 288.403 391.897C293.761 390.593 299.144 388.394 304.4 385.359C309.847 382.214 313.67 379.074 316.089 375.76C318.626 372.284 319.848 368.759 319.723 365.288C319.599 361.827 318.237 358.503 315.676 355.409C313.345 352.593 310.306 349.965 306.625 347.585ZM288.496 368.474C288.223 368.89 287.45 369.768 285.342 370.983C283.599 371.99 281.879 372.684 280.23 373.046C278.915 373.335 277.602 373.481 276.328 373.481C275.981 373.481 275.634 373.471 275.286 373.449C273.675 373.351 272.083 373.039 270.552 372.521C268.92 371.968 267.287 371.259 265.655 370.389C259.729 367.35 254.118 364.11 248.93 360.729C247.532 359.857 246.397 358.971 245.558 358.1C244.941 357.458 244.555 356.841 244.439 356.327C244.417 356.228 244.351 355.924 244.783 355.266C245.055 354.853 245.825 353.977 247.936 352.758C249.684 351.749 251.404 351.055 253.047 350.695C254.313 350.418 255.568 350.277 256.777 350.277C257.157 350.277 257.534 350.291 257.905 350.318C259.506 350.437 261.096 350.76 262.629 351.278C264.291 351.841 265.988 352.545 267.602 353.339C273.353 356.355 278.982 359.606 284.349 363.009C285.77 363.899 286.943 364.794 287.829 365.667C288.424 366.255 288.786 366.818 288.875 367.296C288.895 367.414 288.96 367.767 288.496 368.474Z" fill="#E0E0E0"/>
<path d="M394.57 323.926L388.67 320.519L392.962 318.042C395.196 316.749 395.529 314.917 395.529 313.94C395.529 312.965 395.196 311.135 392.958 309.838L382.272 303.67C381.09 302.986 379.684 302.638 378.081 302.635C376.491 302.638 375.085 302.985 373.901 303.668L366.691 307.832L329.433 286.321C328.25 285.638 326.844 285.29 325.251 285.289C323.664 285.289 322.256 285.635 321.066 286.32L305.84 295.111C304.528 295.87 303.664 296.618 303.106 297.494C302.451 298.547 302.249 299.841 302.521 301.418L310.404 340.856C310.862 342.837 312.346 344.563 314.815 345.989L325.502 352.158C326.687 352.844 328.092 353.191 329.677 353.191H329.685C331.275 353.191 332.683 352.844 333.869 352.159L364.171 334.664L372.995 339.758C374.181 340.443 375.589 340.79 377.186 340.79C378.772 340.79 380.177 340.443 381.362 339.758L394.563 332.135C396.798 330.852 397.139 329.018 397.142 328.019C397.14 327.042 396.801 325.215 394.57 323.926ZM335.89 325.613L334.119 316.731L342.696 321.684L335.89 325.613Z" fill="#E0E0E0"/>
<path d="M435.371 85.7529L425.908 80.2899C425.955 79.9219 425.988 79.5399 425.988 79.1289V76.3879C425.988 71.5089 422.563 65.5769 418.338 63.1379C416.627 62.1499 415.053 61.8979 413.779 62.2579C413.087 55.3249 408.274 47.4819 402.429 44.1069C396.108 40.4579 390.984 43.4159 390.984 50.7149V54.8159C390.984 56.7059 391.334 58.7019 391.953 60.6859L384.093 56.1479C381.749 54.7949 379.85 55.8919 379.85 58.5979C379.85 61.3039 381.75 64.5949 384.093 65.9479L435.372 95.5539C437.716 96.9069 439.615 95.8099 439.615 93.1039C439.615 90.3969 437.715 87.1059 435.371 85.7529Z" fill="#EBEBEB"/>
<path d="M377.997 95.892L371.969 92.412C371.999 92.177 372.02 91.934 372.02 91.672V89.926C372.02 86.818 369.838 83.039 367.147 81.485C366.057 80.856 365.054 80.695 364.242 80.924C363.801 76.507 360.735 71.511 357.011 69.361C352.984 67.036 349.72 68.92 349.72 73.57V76.183C349.72 77.387 349.943 78.659 350.337 79.923L345.33 77.032C343.837 76.17 342.627 76.869 342.627 78.593C342.627 80.317 343.837 82.413 345.33 83.275L377.998 102.136C379.491 102.998 380.701 102.299 380.701 100.575C380.7 98.851 379.49 96.754 377.997 95.892Z" fill="#EBEBEB"/>
<path d="M373.82 300.748C370.585 285.938 365.406 271.422 368.625 248.765C371.542 228.231 382.327 209.876 397.699 207.822C408.064 206.437 417.113 217.993 406.968 232.834C405.284 235.297 383.317 256.792 386.938 286.503L384.889 306.237L373.82 300.748Z" fill="#2CB67D"/>
<g opacity="0.2">
<path d="M373.82 300.748C370.585 285.938 365.406 271.422 368.625 248.765C371.542 228.231 382.327 209.876 397.699 207.822C408.064 206.437 417.113 217.993 406.968 232.834C405.284 235.297 383.317 256.792 386.938 286.503L384.889 306.237L373.82 300.748Z" fill="black"/>
</g>
<path d="M379.197 298.549C379.463 298.427 379.627 298.139 379.58 297.836C373.624 259.844 381.23 231.469 399.58 215.874C399.862 215.635 399.896 215.211 399.657 214.93C399.42 214.649 399.001 214.605 398.713 214.854C380.128 230.647 372.225 259.575 378.257 298.044C378.314 298.409 378.656 298.658 379.021 298.602C379.083 298.592 379.142 298.574 379.197 298.549Z" fill="white"/>
<path d="M391.143 312.058C391.068 306.297 394.245 293.745 401.78 282.79C411.284 268.972 426.096 264.449 427.611 257.207C429.43 248.507 420.325 243.544 408.526 247.764C394.345 252.837 377.589 273.266 383.398 307.706L391.143 312.058Z" fill="#7F5AF0"/>
<path d="M387.266 305.974C387.522 305.874 387.708 305.633 387.724 305.34C389.322 274.771 407.476 258.764 416.85 254.57C417.213 254.408 417.375 253.982 417.213 253.619C417.051 253.255 416.639 253.088 416.262 253.256C405.895 257.893 387.917 274.064 386.285 305.266C386.264 305.662 386.57 306.002 386.967 306.023C387.072 306.027 387.173 306.01 387.266 305.974Z" fill="white"/>
<path d="M244.655 401.337L231.445 408.959C230.709 409.392 229.797 409.602 228.721 409.602C227.645 409.602 226.745 409.392 226.009 408.959L215.721 403.02L183.958 421.362C183.222 421.783 182.31 422.005 181.234 422.005C180.159 422.005 179.258 421.783 178.51 421.362L167.825 415.19C166.071 414.185 165.066 413.097 164.797 411.928L156.929 372.578C156.882 372.321 156.871 372.087 156.871 371.877C156.871 372.637 156.859 382.457 156.871 382.936C156.871 383.123 156.894 383.322 156.929 383.544L164.797 422.894C165.066 424.063 166.071 425.15 167.825 426.156L178.51 432.328C179.258 432.749 180.158 432.971 181.234 432.971C182.31 432.971 183.222 432.749 183.958 432.328L215.721 413.986L226.009 419.925C226.745 420.358 227.646 420.568 228.721 420.568C229.796 420.568 230.708 420.358 231.445 419.925L244.655 412.303C245.392 411.87 245.766 411.356 245.766 410.725V399.759C245.766 400.378 245.392 400.904 244.655 401.337Z" fill="#2CB67D"/>
<path d="M244.153 396.637V385.671C244.153 386.291 243.779 386.817 243.043 387.249L234.369 392.253L243.733 397.654C244.001 397.35 244.153 397.011 244.153 396.637Z" fill="#2CB67D"/>
<path d="M184.017 395.094L190.587 398.905L200.091 393.422L181.538 382.702L184.005 395.094H184.017Z" fill="#2CB67D"/>
<path opacity="0.35" d="M184.017 395.094L190.587 398.905L200.091 393.422L181.538 382.702L184.005 395.094H184.017Z" fill="black"/>
<path opacity="0.2" d="M244.153 396.637V385.671C244.153 386.291 243.779 386.817 243.043 387.249L234.369 392.253L243.733 397.654C244.001 397.35 244.153 397.011 244.153 396.637Z" fill="black"/>
<path opacity="0.2" d="M244.655 401.337L231.445 408.959C230.709 409.392 229.797 409.602 228.721 409.602V420.568C229.796 420.568 230.708 420.358 231.445 419.925L244.655 412.303C245.392 411.87 245.766 411.356 245.766 410.725V399.759C245.766 400.378 245.392 400.904 244.655 401.337Z" fill="black"/>
<path opacity="0.25" d="M164.798 411.928L156.93 372.578C156.883 372.321 156.872 372.087 156.872 371.877C156.872 372.637 156.86 382.457 156.872 382.936C156.872 383.123 156.895 383.322 156.93 383.544L164.798 422.894C164.845 423.116 164.927 423.338 165.043 423.56V412.594C164.926 412.372 164.844 412.15 164.798 411.928Z" fill="black"/>
<path opacity="0.35" d="M181.234 422.005C180.159 422.005 179.258 421.783 178.51 421.362L167.825 415.19C166.41 414.383 165.475 413.518 165.043 412.595V423.561C165.475 424.484 166.411 425.35 167.825 426.156L178.51 432.328C179.258 432.749 180.158 432.971 181.234 432.971C181.339 432.971 181.433 432.971 181.538 432.948V421.982C181.433 422.005 181.34 422.005 181.234 422.005Z" fill="black"/>
<path opacity="0.2" d="M183.958 421.362C183.291 421.748 182.485 421.958 181.538 421.982V432.948C182.485 432.925 183.291 432.714 183.958 432.328L215.721 413.986V403.02L183.958 421.362Z" fill="black"/>
<path opacity="0.35" d="M226.009 408.959L215.721 403.02V413.986L226.009 419.925C226.745 420.358 227.646 420.568 228.721 420.568V409.602C227.646 409.602 226.745 409.392 226.009 408.959Z" fill="black"/>
<path d="M231.45 408.959C230.709 409.386 229.801 409.6 228.725 409.599C227.65 409.599 226.744 409.385 226.004 408.958L215.719 403.02L183.956 421.359C183.216 421.786 182.312 421.999 181.233 421.999C180.156 422 179.252 421.785 178.512 421.358L167.824 415.187C166.076 414.178 165.068 413.092 164.798 411.927L156.934 372.573C156.8 371.797 156.868 371.195 157.134 370.769C157.405 370.343 157.976 369.876 158.849 369.371L174.074 360.581C174.814 360.155 175.722 359.942 176.799 359.941C177.874 359.942 178.782 360.156 179.52 360.582L218.239 382.936L226.91 377.929C227.648 377.502 228.558 377.29 229.633 377.288C230.71 377.29 231.615 377.503 232.355 377.93L243.043 384.1C243.783 384.527 244.153 385.051 244.153 385.671C244.153 386.294 243.781 386.817 243.043 387.244L234.372 392.251L244.655 398.188C245.397 398.616 245.765 399.139 245.767 399.76C245.766 400.382 245.395 400.906 244.656 401.332L231.45 408.959ZM200.089 393.416L181.538 382.705L185.369 401.915L200.089 393.416Z" fill="#2CB67D"/>
<path d="M315.64 352.646C315.593 355.288 314.553 357.989 312.554 360.736C310.403 363.682 306.814 366.616 301.764 369.527C296.725 372.438 291.652 374.507 286.543 375.758C281.434 376.997 276.442 377.593 271.567 377.535C266.704 377.477 262.004 376.822 257.503 375.583C253.002 374.344 248.829 372.731 244.994 370.743C242.107 369.235 239.09 367.563 235.922 365.739C232.766 363.915 229.808 362.138 227.049 360.385C223.624 358.175 220.83 355.767 218.69 353.172C216.527 350.565 215.405 347.864 215.311 345.047C215.37 346.789 215.241 354.095 215.311 356.013C215.404 358.83 216.527 361.531 218.69 364.138C220.829 366.733 223.623 369.141 227.049 371.351C229.808 373.105 232.766 374.881 235.922 376.705C239.09 378.529 242.106 380.2 244.994 381.72C248.829 383.696 253.002 385.309 257.503 386.548C262.004 387.787 266.704 388.442 271.567 388.5C276.442 388.559 281.434 387.962 286.543 386.723C291.652 385.472 296.725 383.403 301.764 380.492C306.814 377.581 310.403 374.647 312.554 371.701C314.705 368.755 315.734 365.867 315.628 363.062C315.57 361.449 315.675 355.136 315.64 352.646Z" fill="#2CB67D"/>
<path opacity="0.35" d="M274.258 377.477C273.358 377.51 272.458 377.545 271.567 377.535C266.704 377.477 262.004 376.822 257.503 375.583C253.002 374.344 248.829 372.731 244.994 370.743C242.107 369.235 239.09 367.563 235.922 365.739C232.766 363.915 229.808 362.138 227.049 360.385C223.624 358.175 220.83 355.767 218.69 353.172C216.527 350.565 215.405 347.864 215.311 345.047C215.37 346.789 215.241 354.095 215.311 356.013C215.404 358.83 216.527 361.531 218.69 364.138C220.829 366.733 223.623 369.141 227.049 371.351C229.808 373.105 232.766 374.881 235.922 376.705C239.09 378.529 242.106 380.2 244.994 381.72C248.829 383.696 253.002 385.309 257.503 386.548C262.004 387.787 266.704 388.442 271.567 388.5C272.459 388.511 273.359 388.475 274.258 388.442V377.477Z" fill="black"/>
<path opacity="0.2" d="M315.64 352.646C315.593 355.288 314.553 357.989 312.554 360.736C310.403 363.682 306.814 366.616 301.764 369.527C296.725 372.438 291.652 374.507 286.543 375.758C282.369 376.77 278.278 377.33 274.26 377.477V388.443C278.278 388.295 282.369 387.736 286.543 386.724C291.652 385.473 296.725 383.404 301.764 380.493C306.814 377.582 310.403 374.648 312.554 371.702C314.705 368.756 315.734 365.868 315.628 363.063C315.57 361.449 315.675 355.136 315.64 352.646Z" fill="black"/>
<path d="M242.282 346.824C242.843 347.409 243.498 347.993 244.246 348.554C244.585 348.332 244.924 348.11 245.298 347.888C247.32 346.731 249.296 345.936 251.249 345.503C253.201 345.082 255.107 344.93 256.954 345.07C258.801 345.21 260.613 345.573 262.402 346.169C264.179 346.777 265.979 347.525 267.791 348.414C273.636 351.489 279.283 354.739 284.731 358.199C285.444 358.643 286.098 359.099 286.694 359.543C288.132 358.614 289.173 357.693 289.77 356.773C290.506 355.651 290.775 354.54 290.577 353.453C290.378 352.377 289.759 351.314 288.718 350.285C287.666 349.256 286.345 348.239 284.732 347.234C279.284 343.774 273.638 340.512 267.792 337.449C265.98 336.561 264.18 335.812 262.403 335.204C260.614 334.608 258.802 334.246 256.955 334.105C255.108 333.965 253.202 334.117 251.25 334.538C249.298 334.97 247.322 335.765 245.299 336.923C243.288 338.092 241.909 339.238 241.172 340.36C240.436 341.482 240.178 342.581 240.412 343.645C240.657 344.72 241.277 345.772 242.282 346.824Z" fill="#2CB67D"/>
<path opacity="0.35" d="M242.282 346.824C242.843 347.409 243.498 347.993 244.246 348.554C244.585 348.332 244.924 348.11 245.298 347.888C247.32 346.731 249.296 345.936 251.249 345.503C253.201 345.082 255.107 344.93 256.954 345.07C258.801 345.21 260.613 345.573 262.402 346.169C264.179 346.777 265.979 347.525 267.791 348.414C273.636 351.489 279.283 354.739 284.731 358.199C285.444 358.643 286.098 359.099 286.694 359.543C288.132 358.614 289.173 357.693 289.77 356.773C290.506 355.651 290.775 354.54 290.577 353.453C290.378 352.377 289.759 351.314 288.718 350.285C287.666 349.256 286.345 348.239 284.732 347.234C279.284 343.774 273.638 340.512 267.792 337.449C265.98 336.561 264.18 335.812 262.403 335.204C260.614 334.608 258.802 334.246 256.955 334.105C255.108 333.965 253.202 334.117 251.25 334.538C249.298 334.97 247.322 335.765 245.299 336.923C243.288 338.092 241.909 339.238 241.172 340.36C240.436 341.482 240.178 342.581 240.412 343.645C240.657 344.72 241.277 345.772 242.282 346.824Z" fill="black"/>
<path d="M229.171 327.611C234.212 324.7 239.29 322.624 244.398 321.381C249.506 320.141 254.499 319.549 259.371 319.606C264.242 319.666 268.933 320.315 273.436 321.557C277.94 322.8 282.107 324.41 285.94 326.388C288.964 327.982 292.057 329.688 295.216 331.512C298.375 333.336 301.264 335.083 303.888 336.75C307.315 338.963 310.105 341.37 312.256 343.969C314.408 346.569 315.533 349.278 315.635 352.089C315.736 354.903 314.711 357.786 312.561 360.734C310.408 363.683 306.812 366.615 301.771 369.525C296.73 372.436 291.654 374.511 286.545 375.754C281.439 376.996 276.446 377.587 271.572 377.529C266.7 377.472 262.008 376.822 257.508 375.578C253.002 374.337 248.835 372.726 245.002 370.748C242.111 369.234 239.089 367.566 235.929 365.741C232.769 363.917 229.81 362.132 227.053 360.385C223.626 358.172 220.836 355.767 218.687 353.165C216.533 350.567 215.41 347.859 215.308 345.045C215.208 342.232 216.233 339.35 218.382 336.401C220.535 333.452 224.13 330.521 229.171 327.611ZM284.729 347.229C279.283 343.776 273.637 340.516 267.789 337.449C265.976 336.557 264.175 335.81 262.396 335.207C260.614 334.606 258.799 334.238 256.95 334.101C255.103 333.966 253.2 334.111 251.252 334.538C249.302 334.965 247.322 335.761 245.303 336.925C243.288 338.089 241.909 339.234 241.17 340.36C240.431 341.486 240.179 342.583 240.413 343.649C240.651 344.717 241.272 345.773 242.279 346.822C243.288 347.87 244.599 348.9 246.212 349.907C251.454 353.323 257.102 356.584 263.152 359.687C264.899 360.619 266.664 361.384 268.446 361.986C270.224 362.588 272.058 362.948 273.94 363.062C275.824 363.179 277.739 363.024 279.688 362.596C281.638 362.169 283.622 361.374 285.637 360.209C287.655 359.045 289.031 357.9 289.77 356.774C290.509 355.65 290.78 354.543 290.577 353.456C290.375 352.37 289.753 351.312 288.713 350.284C287.668 349.258 286.341 348.239 284.729 347.229Z" fill="#2CB67D"/>
<path d="M391.939 316.301L378.729 323.923C377.993 324.355 377.081 324.566 376.005 324.566C374.929 324.566 374.029 324.356 373.293 323.923L363.005 317.984L331.242 336.326C330.505 336.747 329.594 336.969 328.518 336.969C327.443 336.969 326.542 336.747 325.794 336.326L315.109 330.153C313.355 329.148 312.35 328.06 312.081 326.891L304.213 287.541C304.166 287.284 304.155 287.05 304.155 286.84C304.155 287.6 304.143 297.42 304.155 297.899C304.155 298.086 304.178 298.285 304.213 298.507L312.081 337.857C312.35 339.026 313.355 340.113 315.109 341.119L325.794 347.292C326.542 347.713 327.442 347.935 328.518 347.935C329.594 347.935 330.505 347.713 331.242 347.292L363.005 328.95L373.293 334.889C374.03 335.321 374.93 335.532 376.005 335.532C377.08 335.532 377.992 335.322 378.729 334.889L391.939 327.267C392.676 326.835 393.05 326.32 393.05 325.689V314.723C393.05 315.342 392.676 315.868 391.939 316.301Z" fill="#2CB67D"/>
<path d="M391.436 311.601V300.635C391.436 301.255 391.062 301.781 390.325 302.213L381.651 307.217L391.015 312.618C391.284 312.314 391.436 311.975 391.436 311.601Z" fill="#2CB67D"/>
<path d="M331.301 310.058L337.87 313.869L347.375 308.386L328.822 297.666L331.289 310.058H331.301Z" fill="#2CB67D"/>
<path opacity="0.35" d="M331.301 310.058L337.87 313.869L347.375 308.386L328.822 297.666L331.289 310.058H331.301Z" fill="black"/>
<path opacity="0.2" d="M391.436 311.601V300.635C391.436 301.255 391.062 301.781 390.325 302.213L381.651 307.217L391.015 312.618C391.284 312.314 391.436 311.975 391.436 311.601Z" fill="black"/>
<path opacity="0.2" d="M391.939 316.301L378.729 323.923C377.993 324.355 377.081 324.566 376.005 324.566V335.532C377.08 335.532 377.992 335.322 378.729 334.889L391.939 327.267C392.676 326.835 393.05 326.32 393.05 325.689V314.723C393.05 315.342 392.676 315.868 391.939 316.301Z" fill="black"/>
<path opacity="0.25" d="M312.081 326.892L304.213 287.542C304.166 287.285 304.155 287.051 304.155 286.841C304.155 287.601 304.143 297.421 304.155 297.9C304.155 298.087 304.178 298.286 304.213 298.508L312.081 337.858C312.128 338.08 312.21 338.302 312.326 338.524V327.558C312.21 327.336 312.128 327.114 312.081 326.892Z" fill="black"/>
<path opacity="0.35" d="M328.518 336.97C327.443 336.97 326.542 336.748 325.794 336.327L315.109 330.154C313.694 329.347 312.759 328.482 312.327 327.559V338.525C312.759 339.449 313.695 340.314 315.109 341.12L325.794 347.293C326.542 347.714 327.442 347.936 328.518 347.936C328.623 347.936 328.717 347.936 328.822 347.913V336.947C328.717 336.97 328.623 336.97 328.518 336.97Z" fill="black"/>
<path opacity="0.2" d="M331.242 336.327C330.575 336.713 329.769 336.923 328.822 336.947V347.913C329.769 347.89 330.576 347.679 331.242 347.293L363.005 328.951V317.985L331.242 336.327Z" fill="black"/>
<path opacity="0.35" d="M373.293 323.923L363.005 317.984V328.95L373.293 334.889C374.03 335.321 374.93 335.532 376.005 335.532V324.566C374.929 324.566 374.029 324.355 373.293 323.923Z" fill="black"/>
<path d="M378.734 323.923C377.993 324.35 377.085 324.564 376.009 324.563C374.934 324.563 374.028 324.349 373.288 323.922L363.003 317.984L331.24 336.323C330.5 336.75 329.596 336.963 328.517 336.963C327.44 336.964 326.536 336.749 325.796 336.322L315.108 330.151C313.36 329.142 312.352 328.056 312.082 326.891L304.218 287.538C304.084 286.762 304.152 286.16 304.418 285.734C304.689 285.307 305.26 284.841 306.133 284.336L321.358 275.546C322.098 275.121 323.006 274.907 324.083 274.906C325.158 274.907 326.066 275.121 326.804 275.547L365.523 297.901L374.194 292.894C374.932 292.467 375.842 292.255 376.917 292.253C377.994 292.255 378.899 292.468 379.639 292.895L390.327 299.065C391.067 299.492 391.437 300.016 391.437 300.636C391.437 301.259 391.065 301.782 390.327 302.209L381.656 307.216L391.939 313.153C392.68 313.581 393.049 314.104 393.051 314.725C393.05 315.347 392.679 315.871 391.94 316.297L378.734 323.923ZM347.372 308.38L328.821 297.669L332.652 316.879L347.372 308.38Z" fill="#2CB67D"/>
<path d="M310.379 409.165C310.604 409.034 310.881 408.97 311.209 408.97C311.536 408.97 311.812 409.035 312.037 409.165L315.295 411.046C315.521 411.176 315.634 411.336 315.633 411.525C315.633 411.714 315.521 411.875 315.295 412.004L300.729 420.414C300.503 420.544 300.227 420.609 299.899 420.608C299.572 420.609 299.295 420.544 299.069 420.414L279.217 408.952C278.992 408.822 278.879 408.663 278.878 408.473C278.879 408.284 278.991 408.124 279.217 407.995L293.538 399.726C293.763 399.596 294.04 399.531 294.367 399.531C294.696 399.531 294.973 399.596 295.198 399.726L298.456 401.607C298.681 401.737 298.792 401.896 298.793 402.086C298.792 402.275 298.681 402.436 298.455 402.565L288.989 408.03L292.308 409.946L301.098 404.872C301.323 404.742 301.599 404.677 301.928 404.677C302.255 404.677 302.532 404.743 302.756 404.872L306.014 406.753C306.24 406.883 306.353 407.043 306.352 407.232C306.353 407.422 306.24 407.582 306.014 407.711L297.225 412.785L300.667 414.772L310.379 409.165Z" fill="#7F5AF0"/>
<path d="M315.233 393.586C315.458 393.456 315.736 393.392 316.063 393.392C316.39 393.392 316.667 393.456 316.894 393.587L319.998 395.379C320.223 395.509 320.334 395.668 320.335 395.858C320.334 396.047 320.223 396.208 319.998 396.337L317.201 397.951C315.316 399.04 315.315 400.128 317.201 401.216L324.761 405.581C324.987 405.711 325.1 405.871 325.099 406.06C325.099 406.249 324.987 406.41 324.761 406.539L320.889 408.774C320.664 408.905 320.387 408.969 320.059 408.969C319.732 408.969 319.455 408.904 319.229 408.774L304.909 400.506C304.682 400.375 304.57 400.216 304.57 400.026C304.571 399.837 304.682 399.677 304.908 399.547L308.473 397.488C308.698 397.358 308.975 397.294 309.302 397.294C309.63 397.294 309.907 397.358 310.133 397.489L310.839 397.896C310.86 397.365 311.059 396.824 311.438 396.273C311.817 395.723 312.467 395.181 313.389 394.649L315.233 393.586Z" fill="#7F5AF0"/>
<path d="M330.107 384.999C330.332 384.868 330.61 384.804 330.937 384.804C331.265 384.804 331.541 384.868 331.768 384.999L334.872 386.791C335.098 386.921 335.209 387.081 335.209 387.27C335.209 387.459 335.098 387.62 334.872 387.749L332.075 389.363C330.19 390.452 330.189 391.54 332.075 392.628L339.635 396.993C339.861 397.123 339.974 397.283 339.973 397.471C339.973 397.661 339.861 397.821 339.635 397.951L335.763 400.186C335.537 400.317 335.261 400.381 334.933 400.381C334.606 400.382 334.328 400.316 334.104 400.186L319.784 391.918C319.557 391.787 319.444 391.628 319.444 391.439C319.445 391.25 319.556 391.09 319.782 390.96L323.347 388.902C323.572 388.772 323.85 388.708 324.176 388.707C324.504 388.707 324.78 388.772 325.007 388.902L325.713 389.31C325.734 388.778 325.934 388.237 326.313 387.686C326.692 387.136 327.342 386.595 328.264 386.063L330.107 384.999Z" fill="#7F5AF0"/>
<path d="M356.537 377.617C356.865 377.783 357.269 378.005 357.751 378.282C358.233 378.561 358.616 378.795 358.904 378.983C359.845 379.575 360.543 380.237 360.994 380.97C361.443 381.703 361.635 382.464 361.563 383.25C361.49 384.037 361.131 384.829 360.486 385.627C359.841 386.426 358.892 387.186 357.643 387.907C356.393 388.629 355.077 389.176 353.695 389.549C352.311 389.921 350.939 390.129 349.578 390.17C348.215 390.212 346.897 390.102 345.627 389.842C344.357 389.581 343.21 389.179 342.186 388.635C341.858 388.47 341.455 388.248 340.972 387.97C340.491 387.692 340.107 387.458 339.819 387.269C338.857 386.69 338.149 386.033 337.7 385.299C337.249 384.567 337.064 383.803 337.146 383.011C337.228 382.218 337.587 381.42 338.222 380.616C338.857 379.811 339.799 379.049 341.049 378.327C342.299 377.605 343.62 377.061 345.014 376.694C346.408 376.328 347.789 376.121 349.162 376.073C350.534 376.026 351.851 376.136 353.111 376.402C354.37 376.668 355.513 377.073 356.537 377.617ZM347.564 385.353C348.404 385.767 349.294 385.957 350.237 385.92C351.179 385.885 352.061 385.631 352.88 385.157C353.699 384.684 354.14 384.176 354.201 383.632C354.262 383.088 353.934 382.573 353.218 382.088C352.951 381.887 352.624 381.674 352.234 381.449C351.845 381.224 351.476 381.035 351.129 380.881C350.288 380.467 349.399 380.278 348.456 380.314C347.512 380.35 346.631 380.604 345.811 381.077C344.992 381.551 344.551 382.059 344.491 382.603C344.43 383.147 344.757 383.662 345.474 384.147C345.74 384.348 346.068 384.561 346.456 384.786C346.847 385.01 347.215 385.2 347.564 385.353Z" fill="#7F5AF0"/>
<path d="M364.527 365.125C364.753 364.995 365.03 364.931 365.357 364.93C365.685 364.931 365.962 364.995 366.188 365.126L369.292 366.918C369.518 367.048 369.629 367.207 369.629 367.397C369.629 367.586 369.518 367.747 369.292 367.876L366.495 369.49C364.61 370.579 364.609 371.667 366.495 372.755L374.055 377.12C374.28 377.25 374.394 377.41 374.393 377.598C374.393 377.788 374.281 377.948 374.055 378.078L370.183 380.313C369.957 380.443 369.681 380.508 369.353 380.508C369.026 380.508 368.749 380.444 368.524 380.313L354.204 372.045C353.977 371.914 353.864 371.755 353.864 371.566C353.865 371.377 353.976 371.216 354.202 371.087L357.767 369.028C357.993 368.898 358.27 368.834 358.596 368.834C358.924 368.834 359.201 368.898 359.428 369.029L360.133 369.436C360.154 368.905 360.354 368.364 360.733 367.813C361.112 367.263 361.762 366.722 362.684 366.189L364.527 365.125Z" fill="#7F5AF0"/>
<path d="M152.588 274.36C148.372 274.191 146.506 274.609 147.161 279.071C147.817 283.533 148.008 286.967 148.008 286.967C148.008 286.967 155.521 287.185 159.004 285.239C162.488 283.294 158.93 274.614 152.588 274.36Z" fill="#2CB67D"/>
<path opacity="0.5" d="M152.588 274.36C148.372 274.191 146.506 274.609 147.161 279.071C147.817 283.533 148.008 286.967 148.008 286.967C148.008 286.967 155.521 287.185 159.004 285.239C162.488 283.294 158.93 274.614 152.588 274.36Z" fill="black"/>
<path d="M153.264 293.518C152.991 293.518 152.714 293.491 152.437 293.436C150.135 292.982 148.637 290.748 149.092 288.446C150.185 282.908 151.263 278.631 152.215 274.857C153.603 269.355 154.7 265.008 155.368 258.875C156.414 249.274 153.377 240.109 150.186 234.732C148.989 232.715 149.654 230.108 151.671 228.911C153.685 227.714 156.295 228.378 157.492 230.396C159.38 233.577 165.416 245.098 163.814 259.795C163.082 266.515 161.864 271.344 160.454 276.935C159.527 280.608 158.477 284.771 157.427 290.091C157.028 292.116 155.252 293.518 153.264 293.518Z" fill="#455A64"/>
<path d="M143.104 299.261C143.104 299.261 142.697 301.042 143.075 301.749C143.665 302.851 146.93 304.2 148.65 304.91C150.37 305.62 152.265 306.666 154.068 309.944C155.995 313.447 159.492 315.826 163.403 317.312C167.314 318.798 173.009 319.571 179.698 317.9C186.386 316.229 186.667 312.202 186.667 312.202C186.667 312.202 186.772 308.424 185.047 307.944C183.322 307.463 143.104 299.261 143.104 299.261Z" fill="#455A64"/>
<path d="M145.801 285.22C145.611 286.409 145.341 287.585 144.991 288.737C144.028 291.91 142.439 295.175 143.104 299.26C144.203 301.218 146.495 301.957 148.218 302.721C150.533 303.748 152.193 304.428 153.849 306.429C156.822 310.02 159.656 314.562 168.641 315.728C177.625 316.894 184.164 313.626 185.633 310.993C187.102 308.36 185.446 306.082 179.559 303.396C176.57 302.032 169.751 296.423 168.967 295.681C168.206 294.961 167.641 294.124 167.05 293.269C165.856 291.542 164.942 289.348 164.651 287.282C164.378 285.352 164.479 282.851 164.976 280.447C165.082 279.931 165.339 279.395 165.12 278.916C164.545 277.661 162.576 277.993 161.492 278.079C159.857 278.208 158.25 278.557 156.651 278.906C156.133 279.019 155.584 279.148 155.208 279.522C154.845 279.882 154.708 280.405 154.576 280.898C154.375 281.65 154.152 282.396 153.907 283.135C153.737 283.648 153.513 284.207 153.026 284.439C152.544 284.668 151.937 284.475 151.574 284.085C151.211 283.694 151.059 283.148 151.025 282.616C150.99 282.084 151.061 281.551 151.081 281.018C151.101 280.508 151.066 279.969 150.793 279.538C150.204 278.609 148.709 278.465 148.332 277.432C148.13 276.879 148.357 276.231 148.784 275.825C149.211 275.419 149.803 275.227 150.389 275.165C150.975 275.103 151.507 275.122 152.146 275.14L152.457 273.905C150.931 273.764 149.755 273.82 148.371 274.419C147.633 274.738 146.809 275.423 146.499 276.184C145.954 277.523 146.284 278.636 146.351 279.248C146.608 281.605 146.175 282.878 145.801 285.22Z" fill="#2CB67D"/>
<path opacity="0.35" d="M145.801 285.22C145.611 286.409 145.341 287.585 144.991 288.737C144.028 291.91 142.439 295.175 143.104 299.26C144.203 301.218 146.495 301.957 148.218 302.721C150.533 303.748 152.193 304.428 153.849 306.429C156.822 310.02 159.656 314.562 168.641 315.728C177.625 316.894 184.164 313.626 185.633 310.993C187.102 308.36 185.446 306.082 179.559 303.396C176.57 302.032 169.751 296.423 168.967 295.681C168.206 294.961 167.641 294.124 167.05 293.269C165.856 291.542 164.942 289.348 164.651 287.282C164.378 285.352 164.479 282.851 164.976 280.447C165.082 279.931 165.339 279.395 165.12 278.916C164.545 277.661 162.576 277.993 161.492 278.079C159.857 278.208 158.25 278.557 156.651 278.906C156.133 279.019 155.584 279.148 155.208 279.522C154.845 279.882 154.708 280.405 154.576 280.898C154.375 281.65 154.152 282.396 153.907 283.135C153.737 283.648 153.513 284.207 153.026 284.439C152.544 284.668 151.937 284.475 151.574 284.085C151.211 283.694 151.059 283.148 151.025 282.616C150.99 282.084 151.061 281.551 151.081 281.018C151.101 280.508 151.066 279.969 150.793 279.538C150.204 278.609 148.709 278.465 148.332 277.432C148.13 276.879 148.357 276.231 148.784 275.825C149.211 275.419 149.803 275.227 150.389 275.165C150.975 275.103 151.507 275.122 152.146 275.14L152.457 273.905C150.931 273.764 149.755 273.82 148.371 274.419C147.633 274.738 146.809 275.423 146.499 276.184C145.954 277.523 146.284 278.636 146.351 279.248C146.608 281.605 146.175 282.878 145.801 285.22Z" fill="black"/>
<path d="M162.679 314.172C162.679 314.172 162.22 307.8 168.676 303.934C175.132 300.068 179.341 301.999 181.485 303.334C184.038 304.924 187.768 308.35 185.83 311.15C183.737 314.174 180.171 315.784 173.356 316.322C166.542 316.86 162.679 314.172 162.679 314.172Z" fill="#FAFAFA"/>
<path d="M153.781 290.955C154.016 290.977 154.257 290.895 154.424 290.714C155.31 289.756 160.718 286.487 164.812 288.169C164.91 288.014 165.081 287.02 164.585 286.713C159.057 285.327 154.334 288.572 153.266 289.73C152.986 290.033 153.019 290.499 153.338 290.77C153.467 290.88 153.622 290.94 153.781 290.955Z" fill="#FAFAFA"/>
<path d="M166.527 292.492C166.538 291.778 166.12 291.143 165.868 290.965C161.211 290.297 156.529 293.228 155.505 294.338C155.225 294.641 155.259 295.106 155.579 295.377C155.709 295.487 155.863 295.547 156.022 295.562C156.257 295.583 156.498 295.501 156.665 295.32C157.523 294.388 162.846 291.299 166.527 292.492Z" fill="#FAFAFA"/>
<path d="M173.583 299.418C173.513 298.941 172.569 298.218 171.786 298.019C166.637 297.665 162.289 301.588 161.438 302.888C161.212 303.233 161.322 303.688 161.682 303.901C161.828 303.988 161.991 304.022 162.149 304.01C162.384 303.992 162.609 303.872 162.743 303.666C163.498 302.514 168.699 298.119 173.583 299.418Z" fill="#FAFAFA"/>
<path d="M158.696 300.041C158.932 300.035 159.162 299.925 159.306 299.725C160.063 298.68 164.577 294.721 169.229 295.916C169.261 295.508 168.407 294.704 167.993 294.588C163.376 294.17 158.924 297.662 158.038 298.885C157.796 299.219 157.884 299.678 158.233 299.908C158.376 300.004 158.537 300.045 158.696 300.041Z" fill="#FAFAFA"/>
<path d="M105.662 289.114C101.457 288.768 99.5753 289.107 100.042 293.593C100.509 298.079 100.557 301.517 100.557 301.517C100.557 301.517 108.054 302.051 111.616 300.253C115.178 298.456 111.987 289.634 105.662 289.114Z" fill="#2CB67D"/>
<path opacity="0.5" d="M105.662 289.114C101.457 288.768 99.5753 289.107 100.042 293.593C100.509 298.079 100.557 301.517 100.557 301.517C100.557 301.517 108.054 302.051 111.616 300.253C115.178 298.456 111.987 289.634 105.662 289.114Z" fill="black"/>
<path d="M105.532 308.283C105.26 308.272 104.984 308.233 104.709 308.166C102.428 307.616 101.025 305.32 101.577 303.04C102.902 297.553 104.159 293.325 105.269 289.595C106.887 284.156 108.165 279.859 109.091 273.76C110.539 264.211 107.89 254.927 104.929 249.42C103.818 247.354 104.592 244.778 106.658 243.666C108.72 242.555 111.3 243.328 112.412 245.395C114.165 248.652 119.711 260.417 117.493 275.034C116.479 281.717 115.059 286.49 113.415 292.017C112.334 295.648 111.11 299.763 109.837 305.034C109.351 307.04 107.518 308.367 105.532 308.283Z" fill="#455A64"/>
<path d="M95.1392 313.594C95.1392 313.594 94.6572 315.356 95.0062 316.078C95.5492 317.203 98.7542 318.689 100.443 319.47C102.132 320.252 103.981 321.376 105.645 324.727C107.423 328.308 110.817 330.832 114.662 332.481C118.507 334.13 124.165 335.142 130.917 333.754C137.669 332.366 138.12 328.354 138.12 328.354C138.12 328.354 138.384 324.584 136.68 324.032C134.976 323.48 95.1392 313.594 95.1392 313.594Z" fill="#455A64"/>
<path d="M98.4243 299.678C98.1843 300.858 97.8653 302.022 97.4673 303.158C96.3713 306.287 94.6463 309.483 95.1393 313.593C96.1543 315.596 98.4143 316.43 100.103 317.266C102.373 318.39 104.002 319.138 105.573 321.207C108.393 324.92 111.033 329.577 119.961 331.12C128.889 332.663 135.559 329.672 137.137 327.103C138.716 324.534 137.157 322.189 131.387 319.257C128.458 317.769 121.881 311.878 121.129 311.104C120.399 310.353 119.87 309.492 119.316 308.613C118.196 306.837 117.375 304.607 117.17 302.53C116.979 300.59 117.185 298.096 117.782 295.714C117.91 295.204 118.189 294.678 117.99 294.191C117.468 292.913 115.487 293.162 114.4 293.202C112.761 293.262 111.141 293.543 109.529 293.824C109.006 293.915 108.453 294.021 108.061 294.379C107.684 294.724 107.525 295.24 107.372 295.728C107.139 296.471 106.885 297.207 106.609 297.935C106.418 298.44 106.171 298.99 105.674 299.2C105.183 299.408 104.584 299.191 104.238 298.785C103.892 298.379 103.763 297.827 103.751 297.294C103.739 296.761 103.832 296.232 103.874 295.7C103.915 295.191 103.903 294.651 103.648 294.209C103.099 293.256 101.611 293.049 101.278 292.001C101.1 291.44 101.353 290.802 101.797 290.415C102.241 290.028 102.84 289.861 103.428 289.823C104.016 289.785 104.546 289.827 105.184 289.872L105.547 288.651C104.028 288.446 102.851 288.453 101.443 288.992C100.692 289.28 99.8403 289.93 99.4993 290.677C98.8983 291.992 99.1813 293.118 99.2223 293.733C99.3823 296.101 98.8963 297.354 98.4243 299.678Z" fill="#2CB67D"/>
<path opacity="0.35" d="M98.4243 299.678C98.1843 300.858 97.8653 302.022 97.4673 303.158C96.3713 306.287 94.6463 309.483 95.1393 313.593C96.1543 315.596 98.4143 316.43 100.103 317.266C102.373 318.39 104.002 319.138 105.573 321.207C108.393 324.92 111.033 329.577 119.961 331.12C128.889 332.663 135.559 329.672 137.137 327.103C138.716 324.534 137.157 322.189 131.387 319.257C128.458 317.769 121.881 311.878 121.129 311.104C120.399 310.353 119.87 309.492 119.316 308.613C118.196 306.837 117.375 304.607 117.17 302.53C116.979 300.59 117.185 298.096 117.782 295.714C117.91 295.204 118.189 294.678 117.99 294.191C117.468 292.913 115.487 293.162 114.4 293.202C112.761 293.262 111.141 293.543 109.529 293.824C109.006 293.915 108.453 294.021 108.061 294.379C107.684 294.724 107.525 295.24 107.372 295.728C107.139 296.471 106.885 297.207 106.609 297.935C106.418 298.44 106.171 298.99 105.674 299.2C105.183 299.408 104.584 299.191 104.238 298.785C103.892 298.379 103.763 297.827 103.751 297.294C103.739 296.761 103.832 296.232 103.874 295.7C103.915 295.191 103.903 294.651 103.648 294.209C103.099 293.256 101.611 293.049 101.278 292.001C101.1 291.44 101.353 290.802 101.797 290.415C102.241 290.028 102.84 289.861 103.428 289.823C104.016 289.785 104.546 289.827 105.184 289.872L105.547 288.651C104.028 288.446 102.851 288.453 101.443 288.992C100.692 289.28 99.8403 289.93 99.4993 290.677C98.8983 291.992 99.1813 293.118 99.2223 293.733C99.3823 296.101 98.8963 297.354 98.4243 299.678Z" fill="black"/>
<path d="M114.07 329.315C114.07 329.315 113.879 322.929 120.492 319.338C127.105 315.747 131.229 317.853 133.315 319.278C135.799 320.974 139.381 324.554 137.328 327.27C135.11 330.204 131.479 331.662 124.648 331.913C117.816 332.163 114.07 329.315 114.07 329.315Z" fill="#FAFAFA"/>
<path d="M106.156 305.745C106.39 305.776 106.635 305.705 106.809 305.531C107.734 304.611 113.275 301.573 117.295 303.425C117.399 303.275 117.612 302.288 117.129 301.961C111.664 300.344 106.808 303.387 105.693 304.499C105.4 304.79 105.414 305.257 105.722 305.541C105.846 305.656 105.998 305.723 106.156 305.745Z" fill="#FAFAFA"/>
<path d="M118.826 307.815C118.867 307.102 118.476 306.45 118.232 306.262C113.608 305.399 108.806 308.13 107.736 309.196C107.444 309.487 107.458 309.953 107.766 310.238C107.891 310.353 108.043 310.42 108.201 310.441C108.435 310.472 108.679 310.401 108.853 310.227C109.751 309.332 115.198 306.469 118.826 307.815Z" fill="#FAFAFA"/>
<path d="M125.584 315.032C125.534 314.552 124.621 313.791 123.848 313.559C118.718 312.989 114.209 316.726 113.304 317.989C113.063 318.324 113.155 318.783 113.505 319.012C113.647 319.105 113.808 319.146 113.968 319.141C114.204 319.133 114.433 319.022 114.576 318.822C115.378 317.702 120.759 313.529 125.584 315.032Z" fill="#FAFAFA"/>
<path d="M110.685 315.029C110.921 315.033 111.155 314.932 111.308 314.739C112.108 313.727 116.785 309.961 121.383 311.351C121.432 310.945 120.613 310.105 120.204 309.973C115.608 309.362 111.014 312.663 110.077 313.848C109.821 314.172 109.89 314.634 110.229 314.879C110.366 314.978 110.525 315.026 110.685 315.029Z" fill="#FAFAFA"/>
<path d="M214.064 215.395C210.001 215.395 204.939 213.972 199.324 210.137C197.941 209.192 197.585 207.303 198.53 205.92C199.476 204.535 201.364 204.182 202.747 205.126C210.313 210.294 215.723 209.688 217.73 208.516C218.544 208.039 219.148 206.914 219.385 205.429C219.859 202.463 218.877 197.612 214.699 192.895C205.86 182.91 194.77 177.778 177.615 175.735C175.951 175.537 174.763 174.027 174.961 172.363C175.159 170.699 176.665 169.506 178.333 169.709C196.845 171.914 209.463 177.825 219.244 188.872C223.982 194.223 226.275 200.77 225.378 206.387C224.846 209.72 223.218 212.337 220.794 213.756C219.096 214.746 216.808 215.395 214.064 215.395Z" fill="#455A64"/>
<path d="M175.684 137.576C180.274 133.253 184.318 120.535 182.232 107.173C180.146 93.811 167.798 81.315 162.881 78.612C157.964 75.909 154.504 79.405 155.841 84.386C157.66 91.162 159.927 106.406 147.281 113.119C147.281 113.119 149.153 123.072 155.67 130.973C162.187 138.874 175.684 137.576 175.684 137.576Z" fill="#2CB67D" fill-opacity="0.68"/>
<path opacity="0.75" d="M175.684 137.576C180.274 133.253 184.318 120.535 182.232 107.173C180.146 93.811 167.798 81.315 162.881 78.612C157.964 75.909 154.504 79.405 155.841 84.386C157.66 91.162 159.927 106.406 147.281 113.119C147.281 113.119 149.153 123.072 155.67 130.973C162.187 138.874 175.684 137.576 175.684 137.576Z" fill="white"/>
<path d="M158.521 87.013C157.406 87.013 156.301 86.851 155.278 86.525C154.958 86.423 154.781 86.082 154.883 85.762C154.986 85.444 155.327 85.264 155.645 85.368C159.627 86.638 165 85.155 166.345 80.998C166.448 80.68 166.786 80.504 167.11 80.608C167.429 80.711 167.603 81.054 167.5 81.373C166.289 85.113 162.342 87.013 158.521 87.013Z" fill="#2CB67D" fill-opacity="0.68"/>
<path d="M163.069 95.406C159.663 95.406 157.3 94.064 156.385 93.546C156.093 93.38 155.992 93.01 156.157 92.719C156.322 92.426 156.693 92.325 156.984 92.49C158.851 93.55 161.815 94.842 165.988 93.838C171.507 92.51 172.685 89.277 172.935 87.948C172.997 87.617 173.319 87.403 173.644 87.464C173.973 87.526 174.189 87.843 174.128 88.172C173.834 89.733 172.48 93.525 166.273 95.019C165.125 95.294 164.053 95.406 163.069 95.406Z" fill="#2CB67D" fill-opacity="0.68"/>
<path d="M169.352 105.927C169.337 105.927 169.321 105.927 169.305 105.927C162.179 105.913 157.763 102.351 155.765 100.229C155.535 99.9851 155.547 99.6011 155.791 99.3711C156.034 99.1421 156.418 99.1521 156.649 99.3971C158.514 101.377 162.636 104.701 169.307 104.714C169.322 104.714 169.338 104.714 169.353 104.714C177.145 104.714 179.46 101.054 180.45 99.4891C180.631 99.2051 181.007 99.1211 181.288 99.3011C181.571 99.4801 181.655 99.8551 181.476 100.138C180.474 101.722 177.813 105.927 169.352 105.927Z" fill="#2CB67D" fill-opacity="0.68"/>
<path d="M172.534 118.134C170.308 118.134 167.903 117.804 165.447 116.976C159.708 115.041 155.563 111.714 153.13 107.089C152.974 106.792 153.087 106.425 153.385 106.269C153.679 106.114 154.049 106.226 154.204 106.523C156.519 110.925 160.324 113.968 165.836 115.826C173.443 118.389 180.704 115.84 182.727 113.972C182.974 113.745 183.358 113.761 183.584 114.006C183.812 114.252 183.796 114.636 183.55 114.864C181.96 116.333 177.736 118.134 172.534 118.134Z" fill="#2CB67D" fill-opacity="0.68"/>
<path opacity="0.1" d="M157.193 126.732C168.077 114.297 163.869 94.7081 161.193 89.0921C157.425 81.1871 159.02 77.7201 162.317 78.3401C157.705 76.2001 154.556 79.5991 155.841 84.3851C157.66 91.1611 159.927 106.405 147.281 113.118C147.281 113.118 148.92 121.825 154.465 129.416C155.375 128.648 156.287 127.767 157.193 126.732Z" fill="black"/>
<path d="M185.678 211.349C181.978 202.342 180.136 177.445 180.901 161.077C183.38 160.558 186.413 157.178 185.187 152.808C184.085 148.88 183.015 148.362 179.703 144.121C177.338 141.093 175.695 137.086 173.576 133.842C166.301 122.7 157.049 115.267 143.434 112.064C141.097 111.514 139.691 109.103 140.362 106.799C141.232 103.808 141.973 99.883 141.059 97.002C139.372 91.685 136.014 91.146 133.787 92.13C131.56 93.114 131.401 95.325 132.068 98.895C132.735 102.465 131.689 103.09 130.496 102.706C129.303 102.322 128.422 95.834 120.112 92.781C111.802 89.728 106.188 93.734 106.327 97.165C106.478 100.908 109.201 101.2 114.967 101.824C117.418 102.089 120.024 103.121 121.682 104.805C124.001 107.16 122.716 111.145 119.49 111.864C98.3562 116.574 81.9522 134.184 77.3122 157.944C76.6092 161.574 76.1252 165.953 75.8322 170.846C75.8322 170.846 73.7142 166.867 69.1692 165.75C65.0872 164.746 63.4722 166.701 63.5262 168.522C63.5802 170.344 65.8532 171.213 68.1432 172.161C71.8132 173.681 72.4102 175.091 72.4102 175.091C72.4102 175.091 69.2372 174.554 66.7282 175.663C64.2192 176.771 63.5622 179.485 65.9882 180.518C67.3432 181.095 69.4102 180.061 71.5402 179.567C72.8812 179.257 75.3622 178.765 75.5002 180.375L75.5022 180.374C75.4532 184.136 75.4862 188.074 75.5952 192.116C75.9022 203.527 77.9012 211.341 76.0772 221.69C74.6952 229.533 67.8342 235.731 74.7232 242.204C77.8022 245.097 81.3992 245.323 84.2212 244.83C86.5302 244.426 88.6872 245.865 89.2232 248.147C89.9882 251.404 92.3442 255.359 98.9802 257.115C105.106 258.736 109.027 256.87 111.416 254.599C113.148 252.953 115.909 252.932 117.442 254.765C119.99 257.811 124.719 261.082 133.269 261.04C141.803 260.998 146.124 257.29 148.258 254.132C149.517 252.269 151.974 251.594 153.909 252.738C157.156 254.658 162.375 256.202 168.879 252.733C173.712 250.155 174.962 245.522 175.079 241.766C175.155 239.302 177.382 237.375 179.819 237.749C183.549 238.323 187.346 237.346 189.911 233.469C194.531 226.485 189.012 219.465 185.678 211.349Z" fill="#2CB67D"/>
<g opacity="0.1">
<path d="M68.1422 172.16C71.8122 173.68 72.4092 175.09 72.4092 175.09C72.4092 175.09 69.2362 174.553 66.7272 175.662C64.2182 176.77 63.5612 179.484 65.9872 180.517C67.3422 181.094 69.4092 180.06 71.5392 179.566C72.8802 179.256 75.3612 178.764 75.4992 180.374L75.5012 180.373C75.4522 184.135 75.4852 188.073 75.5942 192.115C75.9012 203.526 77.9002 211.34 76.0762 221.689C74.6942 229.532 67.8332 235.73 74.7222 242.203C76.3372 243.721 78.0942 244.493 79.8082 244.824C79.6032 244.714 76.3782 239.526 80.1772 232.055C85.5182 221.554 85.1872 214.976 83.7882 193.691C82.0762 167.649 85.2722 156.52 94.7232 138.117C104.406 119.261 119.813 118.344 126.354 113.347C129.909 110.631 128.692 105.694 125.583 102.565C122.971 99.9359 118.891 98.8719 116.486 98.6229C111.217 98.0779 106.33 97.1639 107.318 94.5339C106.644 95.3629 106.293 96.2819 106.329 97.1639C106.48 100.907 109.203 101.199 114.969 101.823C117.42 102.088 120.026 103.12 121.684 104.804C124.003 107.159 122.718 111.144 119.492 111.863C98.3582 116.573 81.9542 134.183 77.3142 157.943C76.6112 161.573 76.1272 165.952 75.8342 170.845C75.8342 170.845 73.7162 166.866 69.1712 165.749C65.0892 164.745 63.4742 166.7 63.5282 168.521C63.5792 170.343 65.8532 171.212 68.1422 172.16Z" fill="black"/>
<path d="M94.7221 248.249C92.0361 244.714 89.8691 244.134 86.1391 244.919C86.1321 244.92 86.1271 244.924 86.1201 244.925C87.6221 245.33 88.8381 246.515 89.2211 248.146C89.9861 251.403 92.3421 255.358 98.9781 257.114C103.304 258.259 106.526 257.661 108.89 256.414C99.2981 258.499 97.4071 251.784 94.7221 248.249Z" fill="black"/>
<path d="M140.795 259.809C136.069 260.429 131.639 259.362 126.658 255.714C121.288 251.781 118.664 252.148 115.342 253.479L115.34 253.48C116.132 253.661 116.871 254.084 117.441 254.764C119.989 257.81 124.718 261.081 133.268 261.039C136.273 261.024 138.746 260.549 140.795 259.809Z" fill="black"/>
<path d="M134.268 97.338C134.089 94.185 136.102 91.803 138.576 92.843C136.991 91.497 135.171 91.518 133.787 92.129C131.56 93.113 131.401 95.324 132.068 98.894C132.735 102.464 131.689 103.089 130.496 102.705C130.32 102.648 130.148 102.446 129.96 102.153L129.961 102.156C130.875 104.182 131.768 106.206 133.851 105.075C135.935 103.944 134.447 100.492 134.268 97.338Z" fill="black"/>
</g>
<path opacity="0.2" d="M114.145 169.43C114.145 169.43 115.299 174.315 120.651 174.247C126.003 174.179 126.591 171.748 128.784 168.433C130.977 165.118 135.678 164.368 139.766 164.3C143.854 164.232 147.679 159.593 145.488 154.896C145.488 154.896 146.045 158.247 142.769 160.388C139.493 162.529 135.134 160.6 130.841 162.655C126.548 164.709 126.178 169.331 123.025 170.801C119.872 172.272 116.05 171.154 114.145 169.43Z" fill="black"/>
<path d="M139.205 166.66C138.732 171.066 134.775 174.246 130.369 173.773C127.759 173.494 125.575 171.989 124.336 169.889C126.46 167.91 127.261 164.488 130.842 162.655C133.67 161.211 135.818 161.866 138.185 161.805C138.999 163.225 139.4 164.912 139.205 166.66Z" fill="#455A64"/>
<path d="M112.448 166.973C113.429 169.189 115.696 171.838 120.861 171.388C126.262 170.917 125.827 165.212 130.84 162.655C135.427 160.315 138.238 163.487 143.049 160.206C147.393 157.243 144.932 151.396 143.295 150.2" stroke="#455A64" stroke-width="1.2138" stroke-miterlimit="10" stroke-linecap="round"/>
<path d="M137.117 165.788C137.102 167.005 136.103 167.979 134.886 167.963C133.669 167.948 132.695 166.949 132.711 165.732C132.726 164.515 133.725 163.541 134.942 163.557C136.158 163.573 137.132 164.572 137.117 165.788Z" fill="#F5F5F5"/>
<path opacity="0.2" d="M180.89 161.353L180.357 161.078C180.357 161.078 178.474 160.95 177.403 159.96C176.332 158.97 175.128 155.729 171.705 154.896C168.281 154.063 166.366 155.733 162.571 155.894C158.775 156.055 157.498 153.432 156.737 151.234C156.335 154.963 157.391 157.462 160.095 158.56C163.098 159.779 168.528 157.22 170.849 158.56C173.17 159.9 174.513 162.671 177.403 162.992C179.073 163.178 180.191 162.721 180.851 162.301C180.863 161.982 180.876 161.666 180.89 161.353Z" fill="black"/>
<path d="M177.403 159.96C176.468 163.601 172.985 166.114 169.125 165.701C164.901 165.24 161.842 161.441 162.303 157.217C162.352 156.768 162.437 156.319 162.57 155.894C165.386 155.821 167.959 153.867 171.71 154.899C175.012 155.809 175.23 158.418 177.403 159.96Z" fill="#455A64"/>
<path d="M156.889 148.714C156.121 150.86 157.139 153.655 159.34 154.986C163.702 157.624 166.604 153.491 171.706 154.896C175.538 155.952 175.222 159.266 178.587 160.601C179.238 160.859 180.264 161.101 180.902 161.076" stroke="#455A64" stroke-width="1.2138" stroke-miterlimit="10" stroke-linecap="round"/>
<path d="M174.072 159.55C174.058 160.687 173.125 161.596 171.988 161.582C170.851 161.568 169.942 160.635 169.956 159.498C169.97 158.361 170.903 157.452 172.04 157.466C173.176 157.481 174.086 158.414 174.072 159.55Z" fill="#F5F5F5"/>
<path d="M149.814 176.643C139.42 181.291 130.289 190.484 126.07 200.618C123.469 206.865 124.885 212.062 128.373 213.24C135.248 215.563 142.958 204.843 150.625 201.103C158.217 197.4 164.538 200.978 168.43 198.47C173.009 195.519 172.34 187.993 169.879 182.619C167.135 176.625 160.209 171.995 149.814 176.643Z" fill="#455A64"/>
<path d="M168.167 198.609C164.357 185.364 151.922 181.235 139.299 183.233C133.512 188.008 128.777 194.115 126.07 200.618C123.469 206.865 124.885 212.062 128.373 213.24C135.248 215.563 142.958 204.842 150.625 201.103C158.053 197.48 164.257 200.81 168.167 198.609Z" fill="#F28F8F"/>
<path opacity="0.1" d="M159.956 199.304C147.19 195.872 138.949 206.844 134.913 206.741C130.875 206.638 128.924 203.113 134.52 194.155C140.065 185.279 152.126 182.763 157.367 185.38C152.141 182.803 145.748 182.211 139.299 183.232C133.512 188.007 128.777 194.114 126.07 200.617C123.469 206.864 124.886 212.061 128.373 213.239C135.248 215.562 142.958 204.841 150.625 201.102C154.029 199.443 157.17 199.246 159.956 199.304Z" fill="black"/>
<path d="M164.858 186.623C162.395 187.691 162.428 190.963 160.399 197.909C160.257 198.396 160.118 198.862 159.982 199.31C163.405 199.388 166.288 199.85 168.431 198.469C168.869 198.187 169.25 197.849 169.603 197.486C170.1 192.216 167.464 185.493 164.858 186.623Z" fill="#F5F5F5"/>
<path d="M169.603 197.487C169.661 196.875 169.672 196.243 169.651 195.606C168.987 196.456 167.949 197.286 166.789 197.513C164.919 197.878 162.839 197.513 162.839 197.513C162.839 197.513 163.484 193.451 164.117 189.961C164.542 187.618 165.945 186.604 167.059 187.415C166.374 186.645 165.616 186.296 164.859 186.625C162.396 187.693 162.429 190.965 160.4 197.911C160.258 198.398 160.119 198.864 159.983 199.312C163.406 199.39 166.288 199.852 168.432 198.471C168.869 198.187 169.25 197.849 169.603 197.487Z" fill="#E0E0E0"/>
<path d="M138.466 195.254C136.003 196.322 136.036 199.594 134.007 206.54C133.119 209.579 132.362 211.818 131.769 213.424C135.436 212.718 139.287 209.417 143.202 206.245C143.755 200.958 141.092 194.115 138.466 195.254Z" fill="#F5F5F5"/>
<path d="M143.202 206.245C143.29 205.4 143.289 204.516 143.226 203.63C139.338 206.15 137 208.846 136.384 208.512C135.766 208.176 136.296 205.443 136.562 202.436C136.883 198.807 137.333 195.05 139.744 195.313C139.326 195.113 138.896 195.067 138.465 195.254C136.002 196.322 136.035 199.594 134.006 206.54C133.118 209.579 132.361 211.818 131.768 213.424C135.437 212.719 139.288 209.417 143.202 206.245Z" fill="#E0E0E0"/>
<path d="M53.7591 240.386C53.4391 240.386 53.1141 240.335 52.7941 240.227C51.2041 239.695 50.3491 237.974 50.8821 236.385C58.9601 212.297 70.8321 202.117 87.3681 193.5C88.8521 192.725 90.6861 193.301 91.4611 194.788C92.2361 196.274 91.6591 198.107 90.1731 198.881C74.5851 207.005 64.0991 216.062 56.6361 238.315C56.2101 239.583 55.0271 240.386 53.7591 240.386Z" fill="#455A64"/>
<path d="M51.6211 234.218C50.3481 237.517 48.4111 238.855 46.5581 240.798C44.7051 242.741 42.7131 243.931 40.7801 246.974C38.8471 250.017 37.9361 255.168 38.5161 257.575C38.8441 258.936 40.7291 258.951 40.8391 257.755C41.2491 253.322 41.9871 249.504 45.1011 247.125C45.1011 247.125 42.9921 251.403 42.7131 255.308C42.4341 259.212 42.9451 263.864 44.5631 264.099C46.1811 264.334 46.1151 262.676 45.8901 260.332C45.6651 257.988 45.4541 251.779 48.5751 247.351C48.5751 247.351 47.4621 253.893 48.5731 258.065C49.6841 262.237 51.8491 265.229 53.0481 264.716C54.2461 264.203 54.1891 263.41 52.8931 260.199C51.8871 257.706 51.9371 254.549 52.1921 251.874C52.4511 249.146 53.0771 247.237 54.9101 245.334C55.7081 244.506 56.5521 244.044 57.2211 243.852C57.9771 243.635 59.2801 244.071 59.9781 244.749C61.1061 245.847 62.0971 247.233 62.4071 249.51C62.6921 251.61 66.1621 251.803 64.8701 245.897C63.5781 239.992 56.3081 238.957 58.1321 234.139L51.6211 234.218Z" fill="#455A64"/>
<path d="M202.675 212.13L205.439 206.773C201.144 204.531 206.056 197.938 203.573 192.427C201.09 186.916 198.419 189.139 199.442 190.995C200.551 193.007 200.761 194.751 200.331 196.265C199.914 197.732 198.963 198.589 197.946 197.722C196.928 196.854 196.287 193.992 192.576 190.842C189.208 187.983 186.021 187.427 184.629 187.424C181.732 187.417 182.75 189.436 184.145 189.996C190.13 192.396 190.877 193.73 192.383 195.686C193.889 197.642 193.69 198.773 192.907 198.539C192.124 198.305 190.943 196.611 187.286 194.929C183.629 193.247 179.586 193.264 178.947 194.029C178.309 194.794 178.39 195.787 180.127 196.203C181.863 196.618 185.54 197.536 187.537 198.688C190.087 200.159 191.252 202.058 190.83 202.614C190.408 203.17 188.231 201.624 184.912 201.013C181.594 200.402 179.886 200.405 178.514 200.937C177.491 201.333 177.858 203.384 180.904 203.527C183.364 203.643 187.382 204.833 189.621 206.36C190.867 207.21 192.527 208.372 194.679 209.305C197.03 210.324 198.452 210.768 202.675 212.13Z" fill="#455A64"/>
<path d="M103.384 131.17C106.893 133.005 112.521 142.588 105.622 152.779C98.7241 162.97 88.9521 162.601 84.4691 161.828C81.6691 160.466 67.0151 154.114 66.2901 133.848C65.5651 113.583 78.0381 105.829 81.1591 104.033C84.2801 102.238 90.4961 101.695 89.7301 108.637C88.9641 115.579 88.2301 121.735 93.2741 126.199C97.2261 129.697 103.384 131.17 103.384 131.17Z" fill="#2CB67D" fill-opacity="0.68"/>
<path opacity="0.75" d="M103.384 131.17C106.893 133.005 112.521 142.588 105.622 152.779C98.7241 162.97 88.9521 162.601 84.4691 161.828C81.6691 160.466 67.0151 154.114 66.2901 133.848C65.5651 113.583 78.0381 105.829 81.1591 104.033C84.2801 102.238 90.4961 101.695 89.7301 108.637C88.9641 115.579 88.2301 121.735 93.2741 126.199C97.2261 129.697 103.384 131.17 103.384 131.17Z" fill="white"/>
<path d="M77.128 157.518C76.55 157.518 76.053 157.491 75.657 157.449C75.324 157.413 75.083 157.114 75.119 156.78C75.155 156.446 75.459 156.209 75.788 156.242C78.834 156.57 88.134 155.889 94.558 148.882C101.134 141.706 101.396 134.721 100.456 130.125C100.39 129.797 100.601 129.476 100.93 129.409C101.252 129.343 101.578 129.553 101.646 129.882C102.642 134.755 102.375 142.149 95.451 149.703C89.522 156.171 81.244 157.518 77.128 157.518Z" fill="#2CB67D" fill-opacity="0.68"/>
<path d="M73.4089 144.143C69.7339 144.143 67.0159 143.552 66.7879 143.501C66.4609 143.427 66.2549 143.103 66.3279 142.776C66.4029 142.449 66.7239 142.243 67.0529 142.317C67.5129 142.42 78.3859 144.782 86.1829 139.553C93.2389 134.821 93.8549 129.107 94.1179 126.667C94.1529 126.333 94.4679 126.099 94.7869 126.129C95.1199 126.164 95.3609 126.464 95.3249 126.797C95.0679 129.181 94.3859 135.514 86.8589 140.56C82.5669 143.439 77.4179 144.143 73.4089 144.143Z" fill="#2CB67D" fill-opacity="0.68"/>
<path d="M76.311 127.987C71.081 127.987 67.664 126.342 65.926 125.204C65.646 125.02 65.568 124.644 65.752 124.364C65.936 124.081 66.312 124.007 66.592 124.189C68.611 125.511 73.072 127.565 80.304 126.46C86.013 125.587 88.485 123.751 90.307 121.896C90.54 121.657 90.925 121.654 91.165 121.889C91.404 122.124 91.407 122.508 91.172 122.747C89.204 124.75 86.547 126.733 80.486 127.659C78.985 127.888 77.594 127.987 76.311 127.987Z" fill="#2CB67D" fill-opacity="0.68"/>
<path d="M82.675 116.296C81.542 116.296 80.321 116.152 79.017 115.812C75.808 114.976 73.412 113.138 72.086 110.498C71.937 110.199 72.058 109.834 72.356 109.684C72.652 109.533 73.02 109.653 73.172 109.954C74.351 112.306 76.421 113.882 79.323 114.638C83.846 115.816 87.267 114.418 89.34 113.037C89.615 112.85 89.995 112.924 90.182 113.206C90.368 113.484 90.292 113.861 90.014 114.047C88.333 115.166 85.848 116.296 82.675 116.296Z" fill="#2CB67D" fill-opacity="0.68"/>
<path opacity="0.1" d="M92.3831 154.598C87.9581 154.195 82.4221 152.942 77.6301 145.593C72.8381 138.244 71.3471 122.94 75.7221 113.716C78.5991 107.65 84.3551 102.086 88.5001 103.944C86.6461 102.218 83.2281 102.843 81.1591 104.033C78.0381 105.828 65.5651 113.582 66.2901 133.848C67.0151 154.114 81.6691 160.465 84.4691 161.828C88.9521 162.6 98.7241 162.97 105.622 152.779C110.241 145.955 109.242 139.409 107.026 135.274L107.022 135.272C110.487 146.142 98.9561 155.197 92.3831 154.598Z" fill="black"/>
<path d="M101.456 152.5C101.456 152.5 96.2442 158.246 96.1992 163.775C96.1762 166.576 98.1952 169.139 101.456 169.139C104.718 169.139 106.737 166.577 106.714 163.775C106.668 158.246 101.456 152.5 101.456 152.5Z" fill="#FAFAFA"/>
<path d="M280.017 60.695L215.536 97.877C214.866 98.264 214.323 99.205 214.323 99.979V140.516C214.323 141.29 214.869 142.225 215.543 142.606L219.89 145.043C220.564 145.423 221.654 145.418 222.324 145.031L286.805 107.849C287.475 107.462 288.018 106.521 288.018 105.747V65.21C288.018 64.436 287.472 63.501 286.798 63.12L282.451 60.683C281.777 60.303 280.688 60.308 280.017 60.695Z" fill="#7F5AF0"/>
<path d="M221.111 144.331V103.794C221.111 103.02 221.654 102.079 222.325 101.692L286.806 64.5099C287.476 64.1229 288.019 64.4369 288.019 65.2109V105.748C288.019 106.522 287.476 107.463 286.806 107.85L222.325 145.032C221.654 145.418 221.111 145.104 221.111 144.331Z" fill="#7F5AF0"/>
<path opacity="0.2" d="M222.324 145.031C221.608 145.441 220.498 145.419 219.888 145.045L215.543 142.603C214.87 142.227 214.321 141.291 214.321 140.518V99.978C214.321 99.574 214.472 99.132 214.708 98.739L221.468 102.599C221.244 102.974 221.109 103.406 221.109 103.793V144.328C221.111 145.037 221.61 145.445 222.324 145.031Z" fill="black"/>
<path opacity="0.4" d="M288.003 64.9899C287.908 64.3789 287.409 64.1599 286.804 64.5079L222.327 101.692C221.991 101.888 221.688 102.219 221.47 102.6L214.704 98.7399C214.923 98.3759 215.214 98.0619 215.539 97.8769L280.021 60.6929C280.688 60.3059 281.775 60.3009 282.453 60.6819L286.798 63.1179C287.409 63.4649 287.918 64.2669 288.003 64.9899Z" fill="white"/>
<path d="M214.322 114.382L204.558 124.315C204.037 124.845 204.218 125.634 204.742 125.975C204.943 126.106 211.501 129.863 211.501 129.863L221.11 118.293L214.322 114.382Z" fill="#7F5AF0"/>
<path opacity="0.1" d="M214.322 114.382L204.558 124.315C204.037 124.845 204.218 125.634 204.742 125.975C204.943 126.106 211.501 129.863 211.501 129.863L221.11 118.293L214.322 114.382Z" fill="black"/>
<path d="M221.111 118.292L211.347 128.224C210.626 128.957 211.249 130.186 212.266 130.04L221.111 128.763C222.06 128.764 222.06 118.292 221.111 118.292Z" fill="#7F5AF0"/>
<path d="M229.011 115.016C229.049 113.883 229.206 112.747 229.484 111.605C229.761 110.464 230.154 109.385 230.662 108.367C231.171 107.349 231.788 106.418 232.517 105.571C233.244 104.725 234.084 104.027 235.037 103.477C235.976 102.934 236.814 102.664 237.548 102.666C238.282 102.669 238.903 102.885 239.413 103.315C239.922 103.745 240.314 104.371 240.591 105.192C240.868 106.014 241.025 106.968 241.064 108.057C241.09 108.894 241.102 109.779 241.102 110.711C241.102 111.643 241.089 112.523 241.064 113.351C241.026 114.483 240.868 115.62 240.591 116.761C240.313 117.902 239.921 118.987 239.413 120.015C238.904 121.042 238.282 121.976 237.548 122.816C236.814 123.656 235.976 124.348 235.037 124.891C234.084 125.441 233.244 125.718 232.517 125.721C231.788 125.725 231.171 125.507 230.662 125.067C230.154 124.627 229.76 123.996 229.484 123.174C229.206 122.352 229.05 121.398 229.011 120.31C228.984 119.512 228.972 118.647 228.972 117.715C228.972 116.783 228.985 115.883 229.011 115.016ZM237.491 115.265C237.504 114.901 237.518 114.497 237.529 114.053C237.542 113.609 237.548 113.16 237.548 112.704C237.548 112.248 237.542 111.811 237.529 111.391C237.517 110.972 237.503 110.599 237.491 110.269C237.465 109.788 237.398 109.371 237.289 109.018C237.18 108.665 237.025 108.393 236.825 108.201C236.625 108.009 236.378 107.909 236.082 107.901C235.785 107.895 235.438 108.005 235.038 108.236C234.638 108.466 234.291 108.757 233.995 109.106C233.698 109.456 233.451 109.842 233.252 110.265C233.051 110.688 232.897 111.139 232.788 111.618C232.678 112.098 232.61 112.593 232.585 113.103C232.559 113.455 232.543 113.846 232.536 114.276C232.53 114.707 232.527 115.149 232.527 115.606C232.527 116.062 232.53 116.506 232.536 116.938C232.542 117.37 232.559 117.758 232.585 118.099C232.637 119.061 232.859 119.755 233.252 120.183C233.644 120.611 234.24 120.594 235.038 120.133C235.836 119.672 236.429 119.003 236.815 118.126C237.201 117.246 237.426 116.293 237.491 115.265Z" fill="white"/>
<path d="M253.175 105.258C253.188 105.548 253.195 105.926 253.195 106.391C253.195 106.857 253.188 107.243 253.175 107.548C253.149 108.514 253.007 109.488 252.751 110.47C252.493 111.451 252.139 112.384 251.688 113.269C251.237 114.153 250.694 114.958 250.056 115.683C249.418 116.408 248.707 116.998 247.922 117.451C247.137 117.905 246.425 118.137 245.787 118.148C245.15 118.159 244.606 117.983 244.155 117.619C243.704 117.254 243.35 116.73 243.093 116.046C242.835 115.362 242.694 114.551 242.668 113.615C242.655 113.325 242.649 112.947 242.649 112.481C242.649 112.016 242.655 111.63 242.668 111.325C242.681 110.366 242.816 109.396 243.074 108.414C243.332 107.432 243.689 106.497 244.146 105.609C244.602 104.72 245.15 103.908 245.787 103.174C246.425 102.44 247.137 101.844 247.922 101.391C248.707 100.938 249.418 100.711 250.056 100.71C250.694 100.708 251.241 100.888 251.698 101.249C252.154 101.609 252.51 102.133 252.76 102.821C253.011 103.509 253.15 104.32 253.175 105.258ZM246.144 111.458C246.183 112.19 246.36 112.677 246.675 112.921C246.99 113.166 247.406 113.139 247.921 112.841C248.436 112.544 248.851 112.091 249.167 111.482C249.482 110.874 249.659 110.183 249.698 109.406C249.724 109.094 249.736 108.749 249.736 108.373C249.736 107.996 249.723 107.667 249.698 107.385C249.66 106.654 249.483 106.166 249.167 105.922C248.851 105.678 248.436 105.704 247.921 106.002C247.406 106.299 246.99 106.753 246.675 107.361C246.36 107.969 246.183 108.662 246.144 109.437C246.118 109.749 246.106 110.093 246.106 110.47C246.106 110.847 246.118 111.176 246.144 111.458Z" fill="white"/>
<path d="M261.057 109.867C260.684 110.083 260.355 110.213 260.072 110.257C259.789 110.302 259.544 110.294 259.338 110.235C259.133 110.175 258.958 110.082 258.817 109.956C258.675 109.83 258.559 109.704 258.47 109.577V115.912C258.47 116.13 258.418 116.348 258.315 116.567C258.211 116.785 258.09 116.934 257.948 117.016L255.513 118.421C255.371 118.503 255.249 118.495 255.146 118.396C255.043 118.296 254.992 118.138 254.992 117.919V98.409C254.992 98.191 255.043 97.974 255.146 97.756C255.25 97.538 255.371 97.388 255.513 97.306L257.851 95.957C257.992 95.875 258.114 95.885 258.219 95.983C258.322 96.082 258.373 96.24 258.373 96.459V97.144C258.488 96.879 258.615 96.597 258.75 96.301C258.885 96.005 259.052 95.715 259.252 95.431C259.452 95.148 259.697 94.867 259.986 94.591C260.276 94.315 260.633 94.054 261.058 93.808C261.638 93.473 262.184 93.292 262.7 93.262C263.214 93.233 263.666 93.388 264.052 93.731C264.439 94.072 264.75 94.602 264.989 95.316C265.227 96.032 265.358 96.966 265.385 98.121C265.398 98.411 265.404 98.809 265.404 99.315C265.404 99.82 265.398 100.226 265.385 100.53C265.358 101.715 265.227 102.802 264.989 103.792C264.75 104.783 264.438 105.672 264.052 106.46C263.666 107.248 263.214 107.929 262.7 108.504C262.183 109.078 261.637 109.533 261.057 109.867ZM261.927 102.168C261.965 101.59 261.965 101.035 261.927 100.502C261.888 99.831 261.739 99.312 261.483 98.945C261.225 98.578 260.794 98.569 260.188 98.919C259.905 99.083 259.66 99.293 259.454 99.551C259.249 99.809 259.078 100.091 258.943 100.396C258.807 100.702 258.701 101.016 258.624 101.338C258.547 101.661 258.495 101.978 258.47 102.29C258.443 102.603 258.43 102.957 258.43 103.353C258.43 103.75 258.443 104.089 258.47 104.372C258.495 104.654 258.547 104.912 258.624 105.145C258.701 105.378 258.807 105.57 258.943 105.72C259.079 105.87 259.249 105.955 259.454 105.974C259.66 105.994 259.905 105.922 260.188 105.758C260.794 105.408 261.224 104.902 261.483 104.237C261.739 103.575 261.887 102.884 261.927 102.168Z" fill="white"/>
<path d="M272.917 98.082C272.917 97.864 272.869 97.723 272.772 97.66C272.676 97.597 272.512 97.593 272.28 97.647C272.047 97.702 271.742 97.799 271.362 97.939C270.983 98.079 270.509 98.234 269.943 98.402C268.964 98.689 268.211 98.569 267.683 98.04C267.154 97.513 266.891 96.575 266.891 95.227C266.891 94.553 266.999 93.866 267.218 93.164C267.437 92.463 267.743 91.781 268.136 91.117C268.528 90.454 269.002 89.839 269.556 89.271C270.109 88.704 270.727 88.223 271.41 87.829C272.08 87.442 272.698 87.21 273.265 87.13C273.831 87.051 274.32 87.086 274.733 87.234C275.144 87.383 275.47 87.641 275.708 88.009C275.946 88.377 276.078 88.802 276.104 89.282C276.117 89.493 276.068 89.709 275.959 89.931C275.849 90.153 275.723 90.304 275.582 90.386L273.283 91.713C273.141 91.795 273.029 91.81 272.946 91.76C272.863 91.709 272.762 91.658 272.646 91.606C272.531 91.554 272.379 91.532 272.192 91.541C272.005 91.55 271.744 91.651 271.409 91.844C271.113 92.015 270.866 92.222 270.665 92.467C270.465 92.712 270.366 92.981 270.366 93.278C270.366 93.497 270.397 93.646 270.462 93.728C270.527 93.81 270.655 93.83 270.848 93.788C271.042 93.747 271.313 93.665 271.66 93.543C272.008 93.422 272.465 93.267 273.032 93.078C274.203 92.699 275.056 92.816 275.591 93.429C276.125 94.043 276.392 94.944 276.392 96.133C276.392 96.807 276.283 97.5 276.064 98.211C275.845 98.922 275.523 99.624 275.098 100.315C274.674 101.006 274.159 101.656 273.553 102.263C272.947 102.87 272.258 103.397 271.487 103.843C270.714 104.289 270.035 104.547 269.449 104.617C268.863 104.688 268.37 104.631 267.971 104.445C267.572 104.258 267.265 103.98 267.054 103.607C266.841 103.234 266.722 102.817 266.696 102.357C266.684 102.146 266.732 101.93 266.842 101.708C266.951 101.487 267.077 101.334 267.218 101.253L269.614 99.87C269.755 99.789 269.859 99.784 269.923 99.856C269.987 99.928 270.07 99.999 270.174 100.068C270.277 100.138 270.425 100.171 270.617 100.169C270.811 100.166 271.101 100.053 271.488 99.83C271.874 99.607 272.208 99.335 272.491 99.013C272.775 98.69 272.917 98.38 272.917 98.082Z" fill="white"/>
<path d="M281.629 90.4949C281.629 90.7129 281.577 90.9319 281.474 91.1499C281.37 91.3679 281.249 91.5179 281.107 91.5989L278.673 93.0039C278.531 93.0859 278.408 93.0779 278.306 92.9789C278.202 92.8799 278.152 92.7209 278.152 92.5019V79.6849C278.152 79.4669 278.202 79.2489 278.306 79.0309C278.409 78.8129 278.531 78.6629 278.673 78.5809L281.107 77.1759C281.248 77.0939 281.37 77.1039 281.474 77.2029C281.577 77.3019 281.629 77.4609 281.629 77.6789V90.4949ZM281.629 96.8899C281.629 97.1079 281.577 97.3259 281.474 97.5439C281.37 97.7629 281.249 97.9119 281.107 97.9939L278.673 99.3989C278.531 99.4809 278.408 99.4729 278.306 99.3729C278.202 99.2739 278.152 99.1149 278.152 98.8969V95.8929C278.152 95.6749 278.202 95.4579 278.306 95.2389C278.409 95.0209 278.531 94.8709 278.673 94.7889L281.107 93.3839C281.248 93.3019 281.37 93.3109 281.474 93.4099C281.577 93.5099 281.629 93.6679 281.629 93.8859V96.8899Z" fill="white"/>
</svg>
