<svg width="24" height="24" viewBox="0 0 24 24" fill="none" xmlns="http://www.w3.org/2000/svg">
<path d="M12 2.01953C10.6894 2.01947 9.39164 2.27671 8.18078 2.77658C6.96993 3.27644 5.86971 4.00914 4.94293 4.93282C4.01616 5.85651 3.28099 6.95311 2.77939 8.16C2.27779 9.36689 2.01959 10.6604 2.01953 11.9668C2.01933 13.2733 2.27735 14.5671 2.77883 15.7742C3.28031 16.9813 4.01544 18.0781 4.94224 19.002C5.86904 19.9259 6.96935 20.6588 8.18033 21.1588C9.39131 21.6588 10.6892 21.9161 12 21.916C13.3108 21.9161 14.6087 21.6588 15.8197 21.1588C17.0307 20.6588 18.131 19.9259 19.0578 19.002C19.9846 18.0781 20.7197 16.9813 21.2212 15.7742C21.7227 14.5671 21.9807 13.2733 21.9805 11.9668C21.9804 10.6604 21.7222 9.36689 21.2206 8.16C20.719 6.95311 19.9838 5.85651 19.0571 4.93282C18.1303 4.00914 17.0301 3.27644 15.8192 2.77658C14.6084 2.27671 13.3106 2.01947 12 2.01953ZM11.3105 6.52344H17.5898L11.2852 10.9551H15.5957L6.41016 17.4102L8.4043 12.9805L9.31641 10.9551L11.3105 6.52344Z" fill="#009485"/>
</svg>
