<svg width="107" height="107" viewBox="0 0 107 107" fill="none" xmlns="http://www.w3.org/2000/svg">
<g clip-path="url(#clip0_242_1685)">
<path d="M82.2828 46.5895C81.3557 40.6817 78.6099 35.2099 74.4275 30.9357C70.2451 26.6615 64.8342 23.7975 58.9479 22.7424C53.0617 21.6873 46.9929 22.4935 41.5863 25.0489C36.1796 27.6043 31.7042 31.7817 28.7828 36.9996C25.9488 37.2341 23.1887 38.0245 20.6602 39.3256C18.1316 40.6268 15.8841 42.4132 14.046 44.583C12.2078 46.7527 10.8151 49.2633 9.94719 51.9713C9.07931 54.6793 8.75331 57.5318 8.98782 60.3658C9.21957 63.1995 10.0072 65.9599 11.3058 68.4892C12.6044 71.0185 14.3885 73.2673 16.5562 75.1071C18.7239 76.9469 21.2327 78.3417 23.9395 79.2119C26.6463 80.0821 29.4979 80.4106 32.3317 80.1786H80.2632C82.4676 80.3108 84.6765 80.0073 86.7636 79.2856C88.8507 78.5639 90.7752 77.4381 92.4271 75.9725C94.079 74.5069 95.426 72.7302 96.3912 70.7439C97.3563 68.7576 97.9206 66.6006 98.0519 64.3961C98.3202 59.9443 96.809 55.5683 93.851 52.2307C90.8929 48.893 86.7301 46.867 82.2784 46.5984L82.2828 46.5895Z" stroke="white" stroke-width="2.75" stroke-linecap="round" stroke-linejoin="round"/>
</g>
<defs>
<clipPath id="clip0_242_1685">
<rect width="107" height="107" fill="white"/>
</clipPath>
</defs>
</svg>
