<svg width="107" height="107" viewBox="0 0 107 107" fill="none" xmlns="http://www.w3.org/2000/svg">
<g clip-path="url(#clip0_241_1681)">
<path d="M46.0323 19.2466C47.9315 11.4178 59.0685 11.4178 60.9677 19.2466C61.2527 20.4227 61.8113 21.5149 62.5982 22.4343C63.385 23.3537 64.3778 24.0744 65.4958 24.5375C66.6138 25.0007 67.8254 25.1934 69.0319 25.0998C70.2384 25.0063 71.4058 24.6292 72.439 23.9992C79.3182 19.8084 87.1961 27.6818 83.0053 34.5655C82.3762 35.5983 81.9997 36.7649 81.9063 37.9706C81.813 39.1763 82.0055 40.387 82.4681 41.5043C82.9308 42.6216 83.6506 43.614 84.5689 44.4008C85.4873 45.1876 86.5783 45.7465 87.7534 46.0323C95.5822 47.9315 95.5822 59.0685 87.7534 60.9677C86.5773 61.2527 85.4851 61.8113 84.5657 62.5982C83.6463 63.385 82.9257 64.3778 82.4625 65.4958C81.9993 66.6138 81.8066 67.8254 81.9002 69.0319C81.9937 70.2384 82.3708 71.4058 83.0008 72.439C87.1916 79.3182 79.3182 87.1961 72.4345 83.0053C71.4017 82.3762 70.2351 81.9997 69.0294 81.9063C67.8237 81.813 66.613 82.0055 65.4957 82.4681C64.3784 82.9308 63.386 83.6506 62.5992 84.5689C61.8124 85.4873 61.2535 86.5783 60.9677 87.7534C59.0685 95.5822 47.9315 95.5822 46.0323 87.7534C45.7473 86.5773 45.1887 85.4851 44.4018 84.5657C43.615 83.6463 42.6222 82.9257 41.5042 82.4625C40.3862 81.9993 39.1746 81.8066 37.9681 81.9002C36.7616 81.9937 35.5942 82.3708 34.561 83.0008C27.6818 87.1916 19.8039 79.3182 23.9948 72.4345C24.6238 71.4017 25.0003 70.2351 25.0937 69.0294C25.187 67.8237 24.9945 66.613 24.5319 65.4957C24.0692 64.3784 23.3495 63.386 22.4311 62.5992C21.5127 61.8124 20.4217 61.2535 19.2466 60.9677C11.4178 59.0685 11.4178 47.9315 19.2466 46.0323C20.4227 45.7473 21.5149 45.1887 22.4343 44.4018C23.3537 43.615 24.0744 42.6222 24.5375 41.5042C25.0007 40.3862 25.1934 39.1746 25.0998 37.9681C25.0063 36.7616 24.6292 35.5942 23.9992 34.561C19.8084 27.6818 27.6818 19.8039 34.5655 23.9948C39.0238 26.7054 44.8018 24.3068 46.0323 19.2466Z" stroke="white" stroke-width="2.75" stroke-linecap="round" stroke-linejoin="round"/>
<path d="M40.125 53.5C40.125 57.0473 41.5341 60.4493 44.0424 62.9576C46.5507 65.4659 49.9527 66.875 53.5 66.875C57.0473 66.875 60.4493 65.4659 62.9576 62.9576C65.4659 60.4493 66.875 57.0473 66.875 53.5C66.875 49.9527 65.4659 46.5507 62.9576 44.0424C60.4493 41.5341 57.0473 40.125 53.5 40.125C49.9527 40.125 46.5507 41.5341 44.0424 44.0424C41.5341 46.5507 40.125 49.9527 40.125 53.5Z" stroke="white" stroke-width="2.75" stroke-linecap="round" stroke-linejoin="round"/>
</g>
<defs>
<clipPath id="clip0_241_1681">
<rect width="107" height="107" fill="white"/>
</clipPath>
</defs>
</svg>
