<svg width="107" height="107" viewBox="0 0 107 107" fill="none" xmlns="http://www.w3.org/2000/svg">
<g clip-path="url(#clip0_647_100)">
<path d="M62.417 13.375V31.2083C62.417 32.3908 62.8867 33.5248 63.7228 34.3609C64.5589 35.197 65.6929 35.6667 66.8753 35.6667H84.7087" stroke="white" stroke-width="1.83333" stroke-linecap="round" stroke-linejoin="round"/>
<path d="M75.792 93.625H31.2087C28.8438 93.625 26.5758 92.6856 24.9036 91.0134C23.2314 89.3412 22.292 87.0732 22.292 84.7083V22.2917C22.292 19.9268 23.2314 17.6588 24.9036 15.9866C26.5758 14.3144 28.8438 13.375 31.2087 13.375H62.417L84.7087 35.6667V84.7083C84.7087 87.0732 83.7692 89.3412 82.097 91.0134C80.4248 92.6856 78.1568 93.625 75.792 93.625Z" stroke="white" stroke-width="1.83333" stroke-linecap="round" stroke-linejoin="round"/>
<path d="M44.5837 80.2501L66.8753 57.9584C68.0578 56.776 68.722 55.1723 68.722 53.5001C68.722 51.8279 68.0578 50.2242 66.8753 49.0418C65.6929 47.8593 64.0892 47.1951 62.417 47.1951C60.7448 47.1951 59.1411 47.8593 57.9587 49.0418L35.667 71.3334V80.2501H44.5837Z" stroke="white" stroke-width="1.83333" stroke-linecap="round" stroke-linejoin="round"/>
</g>
<defs>
<clipPath id="clip0_647_100">
<rect width="107" height="107" fill="white"/>
</clipPath>
</defs>
</svg>
