<svg width="44" height="44" viewBox="0 0 44 44" fill="none" xmlns="http://www.w3.org/2000/svg">
<g clip-path="url(#clip0_633_70)">
<path d="M17.417 16.5H22.917" stroke="white" stroke-width="0.916667" stroke-linecap="round" stroke-linejoin="round"/>
<path d="M7.33301 16.5H11.9163" stroke="white" stroke-width="0.916667" stroke-linecap="round" stroke-linejoin="round"/>
<path d="M20.167 16.5L25.667 36.6667L33.0003 20.1667" stroke="white" stroke-width="0.916667" stroke-linecap="round" stroke-linejoin="round"/>
<path d="M10.083 16.5L16.4997 36.6667L21.9997 23.8333" stroke="white" stroke-width="0.916667" stroke-linecap="round" stroke-linejoin="round"/>
<path d="M32.9997 20.1667C33.3242 19.1987 34.833 17.666 34.833 15.5833C34.833 12.32 33.4103 11 31.3955 11C29.7492 11 29.333 12.4887 29.333 13.6198C29.333 16.9748 32.9997 17.3928 32.9997 20.1667Z" stroke="white" stroke-width="0.916667" stroke-linecap="round" stroke-linejoin="round"/>
<path d="M5.5 22C5.5 24.1668 5.92678 26.3124 6.75599 28.3143C7.58519 30.3161 8.80057 32.1351 10.3327 33.6673C11.8649 35.1994 13.6839 36.4148 15.6857 37.244C17.6876 38.0732 19.8332 38.5 22 38.5C24.1668 38.5 26.3124 38.0732 28.3143 37.244C30.3161 36.4148 32.1351 35.1994 33.6673 33.6673C35.1994 32.1351 36.4148 30.3161 37.244 28.3143C38.0732 26.3124 38.5 24.1668 38.5 22C38.5 19.8332 38.0732 17.6876 37.244 15.6857C36.4148 13.6839 35.1994 11.8649 33.6673 10.3327C32.1351 8.80057 30.3161 7.58519 28.3143 6.75599C26.3124 5.92679 24.1668 5.5 22 5.5C19.8332 5.5 17.6876 5.92679 15.6857 6.75599C13.6839 7.58519 11.8649 8.80057 10.3327 10.3327C8.80057 11.8649 7.58519 13.6839 6.75599 15.6857C5.92678 17.6876 5.5 19.8332 5.5 22Z" stroke="white" stroke-width="0.916667" stroke-linecap="round" stroke-linejoin="round"/>
</g>
<defs>
<clipPath id="clip0_633_70">
<rect width="44" height="44" fill="white"/>
</clipPath>
</defs>
</svg>
