<svg width="107" height="107" viewBox="0 0 107 107" fill="none" xmlns="http://www.w3.org/2000/svg">
<g clip-path="url(#clip0_647_105)">
<path d="M42.3545 40.125H55.7295" stroke="white" stroke-width="1.83333" stroke-linecap="round" stroke-linejoin="round"/>
<path d="M17.833 40.125H28.9788" stroke="white" stroke-width="1.83333" stroke-linecap="round" stroke-linejoin="round"/>
<path d="M49.042 40.125L62.417 89.1667L80.2503 49.0417" stroke="white" stroke-width="1.83333" stroke-linecap="round" stroke-linejoin="round"/>
<path d="M24.5205 40.125L40.1247 89.1667L53.4997 57.9583" stroke="white" stroke-width="1.83333" stroke-linecap="round" stroke-linejoin="round"/>
<path d="M80.2497 49.0417C81.0388 46.6877 84.708 42.9605 84.708 37.8958C84.708 29.96 81.2483 26.75 76.3486 26.75C72.345 26.75 71.333 30.3702 71.333 33.121C71.333 41.2797 80.2497 42.2962 80.2497 49.0417Z" stroke="white" stroke-width="1.83333" stroke-linecap="round" stroke-linejoin="round"/>
<path d="M13.375 53.5C13.375 58.7693 14.4129 63.987 16.4293 68.8552C18.4458 73.7234 21.4014 78.1467 25.1273 81.8727C28.8533 85.5986 33.2766 88.5542 38.1448 90.5707C43.013 92.5871 48.2307 93.625 53.5 93.625C58.7693 93.625 63.987 92.5871 68.8552 90.5707C73.7234 88.5542 78.1467 85.5986 81.8727 81.8727C85.5986 78.1467 88.5542 73.7234 90.5707 68.8552C92.5871 63.987 93.625 58.7693 93.625 53.5C93.625 48.2307 92.5871 43.013 90.5707 38.1448C88.5542 33.2766 85.5986 28.8533 81.8727 25.1273C78.1467 21.4014 73.7234 18.4458 68.8552 16.4293C63.987 14.4129 58.7693 13.375 53.5 13.375C48.2307 13.375 43.013 14.4129 38.1448 16.4293C33.2766 18.4458 28.8533 21.4014 25.1273 25.1273C21.4014 28.8533 18.4458 33.2766 16.4293 38.1448C14.4129 43.013 13.375 48.2307 13.375 53.5Z" stroke="white" stroke-width="1.83333" stroke-linecap="round" stroke-linejoin="round"/>
</g>
<defs>
<clipPath id="clip0_647_105">
<rect width="107" height="107" fill="white"/>
</clipPath>
</defs>
</svg>
