<svg width="107" height="107" viewBox="0 0 107 107" fill="none" xmlns="http://www.w3.org/2000/svg">
<g clip-path="url(#clip0_241_1668)">
<path d="M86.9375 31.2083C83.2645 25.7111 78.2902 21.2067 72.4566 18.0955C66.6231 14.9843 60.1113 13.3627 53.5 13.3749C46.9001 13.3709 40.4013 14.9966 34.5806 18.1076C28.7599 21.2186 23.7975 25.7186 20.1338 31.2083" stroke="white" stroke-width="2.75" stroke-linecap="round" stroke-linejoin="round"/>
<path d="M51.2708 13.375C47.7961 18.9417 45.0595 24.9363 43.1299 31.2083" stroke="white" stroke-width="2.75" stroke-linecap="round" stroke-linejoin="round"/>
<path d="M55.7295 13.375C59.2073 18.9412 61.9469 24.9359 63.8793 31.2083" stroke="white" stroke-width="2.75" stroke-linecap="round" stroke-linejoin="round"/>
<path d="M86.9375 75.7916C83.2645 81.2888 78.2902 85.7932 72.4566 88.9044C66.6231 92.0156 60.1113 93.6372 53.5 93.625C46.9001 93.629 40.4013 92.0033 34.5806 88.8924C28.7599 85.7814 23.7975 81.2813 20.1338 75.7916" stroke="white" stroke-width="2.75" stroke-linecap="round" stroke-linejoin="round"/>
<path d="M51.2708 93.625C47.7961 88.0583 45.0595 82.0636 43.1299 75.7916" stroke="white" stroke-width="2.75" stroke-linecap="round" stroke-linejoin="round"/>
<path d="M55.7295 93.625C59.2073 88.0587 61.9469 82.0641 63.8793 75.7916" stroke="white" stroke-width="2.75" stroke-linecap="round" stroke-linejoin="round"/>
<path d="M8.91699 44.5834L13.3753 62.4167L20.0628 44.5834L26.7503 62.4167L31.2087 44.5834" stroke="white" stroke-width="2.75" stroke-linecap="round" stroke-linejoin="round"/>
<path d="M75.792 44.5834L80.2503 62.4167L86.9378 44.5834L93.6253 62.4167L98.0837 44.5834" stroke="white" stroke-width="2.75" stroke-linecap="round" stroke-linejoin="round"/>
<path d="M42.3545 44.5834L46.8128 62.4167L53.5003 44.5834L60.1878 62.4167L64.6462 44.5834" stroke="white" stroke-width="2.75" stroke-linecap="round" stroke-linejoin="round"/>
</g>
<defs>
<clipPath id="clip0_241_1668">
<rect width="107" height="107" fill="white"/>
</clipPath>
</defs>
</svg>
